<?xml version="1.0" encoding="utf-8"?>
<!-- Generator: Adobe Illustrator 22.0.0, SVG Export Plug-In . SVG Version: 6.00 Build 0)  -->
<svg version="1.1" id="Layer_1" xmlns="http://www.w3.org/2000/svg" xmlns:xlink="http://www.w3.org/1999/xlink" x="0px" y="0px"
	 viewBox="0 0 486 485" enable-background="new 0 0 486 485" xml:space="preserve">
<g>
	<path fill="#010101" d="M485.453,79.523c-0.296-0.638-0.071-1.313-0.14-1.967c0-0.372,0-0.745,0-1.118c0-0.517,0-1.034,0-1.552
		c0.022-2.537-0.082-5.068-0.461-7.577c-0.739-4.901-2.057-9.656-3.74-14.31c-3.687-10.202-9.204-19.312-16.548-27.282
		c-7.307-7.93-15.845-14.228-25.653-18.753c-9.664-4.458-19.741-7.19-30.466-7.119c-0.573,0-1.148,0-1.721,0
		c-109.104,0-218.209,0-327.316,0c-0.657,0-1.312,0-1.969,0c-2.583,0.026-5.173,0.058-7.724,0.429
		C59.933,1.697,50.69,4.756,42.035,9.568c-8.354,4.645-15.698,10.533-21.966,17.749C13.458,34.928,8.355,43.444,4.952,52.94
		c-2.597,7.247-4.412,14.67-4.499,22.427c0.089,1.564-0.138,3.12-0.138,4.681c0.088,109.687-0.178,219.375,0.137,329.067
		c-0.061,1.665-0.001,3.338,0.212,4.97c2.259,17.313,9.255,32.457,21.095,45.295c7.966,8.637,17.446,15.179,28.29,19.701
		c8.105,3.38,16.494,5.593,25.338,5.76c0.513,0,1.027,0,1.541,0c0.65,0.069,1.322-0.156,1.956,0.14c109.471,0,218.943,0,328.414,0
		c0.64-0.296,1.317-0.071,1.973-0.14c0.516,0,1.031,0,1.547,0c2.021-0.126,4.06-0.088,6.058-0.404
		c5.526-0.875,10.939-2.204,16.188-4.182c13.275-5.001,24.516-12.886,33.707-23.691c5.057-5.945,9.193-12.481,12.296-19.639
		c3.715-8.571,6.349-17.414,6.246-26.882c0-0.513,0-1.026,0-1.539c0.069-0.65-0.156-1.321,0.14-1.955
		C485.453,297.542,485.453,188.532,485.453,79.523z M77.104,404.055c-11.545,0.007-23.09,0.006-34.635,0.001
		c-1.766-0.001-1.544,0.197-1.544-1.543c-0.004-26.461-0.003-52.922-0.003-79.383c0-26.369-0.002-52.737,0.004-79.106
		c0-1.883-0.293-1.705,1.68-1.706c11.499-0.005,22.997-0.004,34.496-0.001c1.737,0,1.535-0.172,1.535,1.569
		c0.003,52.876,0.003,105.751-0.001,158.627C78.636,404.295,78.862,404.054,77.104,404.055z M371.963,273.771
		c7.033-10.109,14.078-20.21,21.078-30.342c0.599-0.868,1.215-1.164,2.253-1.16c10.845,0.039,21.69,0.023,32.535,0.029
		c0.439,0,0.9-0.101,1.323,0.097c-0.034,0.491-0.401,0.668-0.644,0.916c-10.078,10.284-20.167,20.556-30.235,30.849
		c-0.556,0.569-1.096,0.851-1.909,0.848c-7.984-0.027-15.968-0.015-23.952-0.023c-0.344,0-0.721,0.115-1.131-0.202
		C371.514,274.436,371.733,274.1,371.963,273.771z M173.17,403.933c-4.807,1.938-9.831,2.765-14.987,3.021
		c-6.703,0.333-13.28-0.234-19.662-2.427c-11.366-3.906-18.722-11.598-21.919-23.223c-1.228-4.464-1.933-9.008-2.296-13.62
		c-0.261-3.322-0.261-6.644-0.262-9.968c-0.006-15.243-0.001-30.485-0.005-45.728c0-1.737,0.188-1.556-1.545-1.558
		c-4.85-0.006-9.7,0.001-14.55-0.004c-1.066-0.001-1.082-0.014-1.083-1.018c-0.005-8.499-0.004-16.998,0-25.497
		c0.001-1.12,0.015-1.133,1.136-1.135c4.804-0.005,9.607-0.002,14.411-0.002c0.323,0,0.647-0.01,0.97-0.001
		c0.45,0.013,0.69-0.164,0.666-0.647c-0.018-0.369-0.002-0.739-0.002-1.108c0-12.379-0.002-24.758,0.002-37.137
		c0.001-1.765-0.185-1.567,1.534-1.568c11.178-0.005,22.356-0.003,33.534-0.001c1.788,0,1.54-0.111,1.541,1.572
		c0.006,12.286,0.003,24.573,0.003,36.859c0,0.277-0.002,0.554,0,0.831c0.011,1.185,0.012,1.197,1.207,1.197
		c6.836,0.004,13.672,0.002,20.508,0.002c0.369,0,0.739,0.005,1.108,0.007c0.337,0.002,0.5,0.181,0.506,0.509
		c0.006,0.323,0.007,0.647,0.007,0.97c0,8.222,0,16.444,0,24.665c0,0.185-0.018,0.372,0.003,0.554
		c0.075,0.666-0.097,1.076-0.884,0.955c-0.271-0.042-0.553-0.006-0.83-0.006c-6.698,0-13.395,0-20.093,0
		c-0.323,0-0.647,0.008-0.97,0.002c-0.416-0.008-0.575,0.209-0.561,0.601c0.008,0.231-0.002,0.462-0.002,0.693
		c0.008,14.642,0,29.284,0.035,43.926c0.008,3.56,0.336,7.098,1.316,10.544c0.151,0.532,0.331,1.056,0.52,1.576
		c1.784,4.915,5.368,7.576,10.467,8.294c3.789,0.534,7.546,0.311,11.451-0.703c0,0.547,0,0.96,0,1.372
		c0,8.453,0.006,16.905-0.006,25.358C174.437,403.621,174.736,403.301,173.17,403.933z M302.681,404.068
		c-9.606-0.015-19.212-0.018-28.817,0.005c-0.722,0.002-1.041-0.231-1.258-0.918c-1.082-3.428-2.216-6.839-3.333-10.256
		c-0.057-0.175-0.119-0.349-0.181-0.523c-0.394-1.116-0.465-1.138-1.278-0.229c-3.937,4.407-8.663,7.733-14.028,10.153
		c-5.949,2.683-12.213,4.098-18.718,4.56c-6.273,0.447-12.469,0.061-18.511-1.724c-11.106-3.279-19.487-9.881-24.41-20.519
		c-2.736-5.912-3.602-12.142-3.018-18.627c0.676-7.506,3.155-14.281,7.819-20.222c4.062-5.175,9.198-9.034,14.967-12.099
		c6.731-3.576,13.917-5.872,21.336-7.479c7.184-1.556,14.458-2.434,21.793-2.871c3.966-0.236,7.935-0.292,11.905-0.377
		c1.048-0.022,1.056-0.022,1.049-1.071c-0.035-4.728-2.185-8.402-5.748-11.326c-2.952-2.423-6.421-3.767-10.105-4.601
		c-4.445-1.007-8.958-1.284-13.493-1.034c-10.296,0.567-20.121,3.057-29.458,7.438c-1.406,0.66-2.763,1.422-4.244,2.189
		c-0.266-0.843-0.525-1.619-0.758-2.404c-1.994-6.716-3.985-13.433-5.972-20.151c-0.414-1.4-0.496-1.153,0.804-1.863
		c6.604-3.61,13.662-5.999,20.959-7.722c6.662-1.573,13.416-2.491,20.252-2.872c5.265-0.294,10.523-0.326,15.775,0.129
		c8.247,0.715,16.225,2.493,23.617,6.371c10.805,5.669,17.67,14.568,21.224,26.129c1.456,4.737,2.246,9.596,2.578,14.543
		c0.177,2.631,0.204,5.259,0.205,7.89c0.004,22.537,0.002,45.073,0.002,67.61c0,0.323-0.037,0.652,0.007,0.969
		C303.751,403.945,303.352,404.069,302.681,404.068z M444.168,404.07c-9.33-0.019-18.66-0.021-27.99,0.003
		c-0.741,0.002-1.011-0.242-1.201-0.954c-1.325-4.942-2.706-9.869-4.071-14.8c-0.11-0.399-0.234-0.794-0.41-1.388
		c-1.29,1.753-2.525,3.24-3.798,4.698c-4.82,5.522-10.841,9.243-17.622,11.853c-7.51,2.89-15.289,3.707-23.265,3.156
		c-5.144-0.355-10.153-1.335-14.954-3.228c-8.241-3.249-14.324-8.956-18.62-16.626c-3.397-6.065-5.432-12.589-6.45-19.454
		c-0.713-4.81-0.929-9.646-0.931-14.497c-0.009-22.771-0.005-45.541-0.002-68.312c0-1.991-0.192-1.745,1.798-1.746
		c11.085-0.006,22.17-0.003,33.255-0.003c0.231,0,0.462-0.004,0.693,0.001c1.042,0.023,1.059,0.024,1.062,1.087
		c0.009,3.372,0.003,6.743,0.003,10.115c0,17.413-0.009,34.826,0.006,52.238c0.004,4.856,0.301,9.688,1.56,14.412
		c0.631,2.371,1.474,4.657,2.69,6.798c2.886,5.084,7.178,8.192,12.945,9.247c5.828,1.066,11.429,0.445,16.615-2.508
		c5.779-3.291,9.715-8.143,11.626-14.55c0.638-2.139,0.694-4.368,0.694-6.588c0.003-22.817,0-45.634,0.006-68.45
		c0.001-1.977-0.268-1.688,1.664-1.69c11.362-0.01,22.724-0.008,34.087-0.002c1.734,0.001,1.563-0.224,1.563,1.532
		c0.003,39.352,0.002,78.704,0.002,118.056c0,0.231-0.025,0.465,0.004,0.692C445.223,403.919,444.858,404.072,444.168,404.07z"/>
	<path fill="#010101" d="M269.082,347.458c-0.005-0.976-0.024-1.005-0.992-1.005c-7.303-0.005-14.578,0.322-21.742,1.897
		c-4.116,0.905-8.098,2.185-11.716,4.413c-5.914,3.643-8.825,8.883-8.279,15.877c0.46,5.899,3.31,10.17,8.868,12.441
		c3.576,1.461,7.315,1.799,11.139,1.399c8.35-0.873,14.901-4.762,19.638-11.696c1.896-2.774,2.932-5.841,3.007-9.203
		c0.05-2.26,0.01-4.522,0.01-6.783c0.023,0,0.047,0,0.07,0C269.086,352.351,269.093,349.905,269.082,347.458z"/>
</g>
</svg>
